<mxfile host="app.diagrams.net" modified="2024-04-16T03:25:39.392Z" agent="Mozilla/5.0 (X11; Ubuntu; Linux x86_64; rv:124.0) Gecko/20100101 Firefox/124.0" etag="iuVuY_bSb-tkpweov_iM" version="24.2.3" type="github">
  <diagram name="Page-1" id="67T9Y4tmb1YHdr85L90Y">
    <mxGraphModel dx="710" dy="1594" grid="1" gridSize="10" guides="1" tooltips="1" connect="1" arrows="1" fold="1" page="1" pageScale="1" pageWidth="850" pageHeight="1100" math="0" shadow="0">
      <root>
        <mxCell id="0" />
        <mxCell id="1" parent="0" />
        <mxCell id="3TUTral6N7AOeNxpEsLW-5" value="COMPARATOR" style="rounded=0;whiteSpace=wrap;html=1;strokeWidth=3;fontSize=24;" parent="1" vertex="1">
          <mxGeometry x="120" y="390" width="200" height="120" as="geometry" />
        </mxCell>
        <mxCell id="3TUTral6N7AOeNxpEsLW-11" style="rounded=0;orthogonalLoop=1;jettySize=auto;html=1;exitX=0.75;exitY=0;exitDx=0;exitDy=0;entryX=0.25;entryY=1;entryDx=0;entryDy=0;strokeWidth=3;fontSize=24;" parent="1" edge="1">
          <mxGeometry relative="1" as="geometry">
            <mxPoint x="260" y="590" as="sourcePoint" />
            <mxPoint x="519.9999999999998" y="510" as="targetPoint" />
          </mxGeometry>
        </mxCell>
        <mxCell id="3TUTral6N7AOeNxpEsLW-13" style="edgeStyle=orthogonalEdgeStyle;rounded=0;orthogonalLoop=1;jettySize=auto;html=1;exitX=0.25;exitY=0;exitDx=0;exitDy=0;entryX=0.25;entryY=1;entryDx=0;entryDy=0;strokeWidth=3;fontSize=24;" parent="1" edge="1">
          <mxGeometry relative="1" as="geometry">
            <mxPoint x="160" y="590" as="sourcePoint" />
            <mxPoint x="160" y="510" as="targetPoint" />
          </mxGeometry>
        </mxCell>
        <mxCell id="3TUTral6N7AOeNxpEsLW-19" style="edgeStyle=orthogonalEdgeStyle;rounded=0;orthogonalLoop=1;jettySize=auto;html=1;exitX=0.25;exitY=1;exitDx=0;exitDy=0;startArrow=classic;startFill=1;endArrow=none;endFill=0;strokeWidth=3;fontSize=24;" parent="1" edge="1">
          <mxGeometry relative="1" as="geometry">
            <mxPoint x="160" y="770" as="targetPoint" />
            <mxPoint x="160" y="710" as="sourcePoint" />
          </mxGeometry>
        </mxCell>
        <mxCell id="3TUTral6N7AOeNxpEsLW-20" style="edgeStyle=orthogonalEdgeStyle;rounded=0;orthogonalLoop=1;jettySize=auto;html=1;exitX=0.75;exitY=1;exitDx=0;exitDy=0;startArrow=classic;startFill=1;endArrow=none;endFill=0;strokeWidth=3;fontSize=24;" parent="1" edge="1">
          <mxGeometry relative="1" as="geometry">
            <mxPoint x="260" y="770" as="targetPoint" />
            <mxPoint x="260" y="710" as="sourcePoint" />
          </mxGeometry>
        </mxCell>
        <mxCell id="3TUTral6N7AOeNxpEsLW-1" value="COMPARATOR" style="rounded=0;whiteSpace=wrap;html=1;strokeWidth=3;fontSize=24;" parent="1" vertex="1">
          <mxGeometry x="120" y="590" width="200" height="120" as="geometry" />
        </mxCell>
        <mxCell id="3TUTral6N7AOeNxpEsLW-21" style="edgeStyle=orthogonalEdgeStyle;rounded=0;orthogonalLoop=1;jettySize=auto;html=1;exitX=0.25;exitY=1;exitDx=0;exitDy=0;startArrow=classic;startFill=1;endArrow=none;endFill=0;fillColor=#e51400;strokeColor=#B85450;strokeWidth=3;fontSize=24;" parent="1" edge="1">
          <mxGeometry relative="1" as="geometry">
            <mxPoint x="520" y="770" as="targetPoint" />
            <mxPoint x="519.9999999999998" y="710" as="sourcePoint" />
          </mxGeometry>
        </mxCell>
        <mxCell id="3TUTral6N7AOeNxpEsLW-22" style="edgeStyle=orthogonalEdgeStyle;rounded=0;orthogonalLoop=1;jettySize=auto;html=1;exitX=0.75;exitY=1;exitDx=0;exitDy=0;startArrow=classic;startFill=1;endArrow=none;endFill=0;strokeWidth=3;fontSize=24;" parent="1" edge="1">
          <mxGeometry relative="1" as="geometry">
            <mxPoint x="620" y="770" as="targetPoint" />
            <mxPoint x="619.9999999999998" y="710" as="sourcePoint" />
          </mxGeometry>
        </mxCell>
        <mxCell id="3TUTral6N7AOeNxpEsLW-2" value="COMPARATOR" style="rounded=0;whiteSpace=wrap;html=1;strokeWidth=3;fontSize=24;" parent="1" vertex="1">
          <mxGeometry x="480" y="590" width="200" height="120" as="geometry" />
        </mxCell>
        <mxCell id="3TUTral6N7AOeNxpEsLW-18" style="rounded=0;orthogonalLoop=1;jettySize=auto;html=1;exitX=0.75;exitY=0;exitDx=0;exitDy=0;entryX=0.75;entryY=1;entryDx=0;entryDy=0;strokeWidth=3;fontSize=24;" parent="1" target="3TUTral6N7AOeNxpEsLW-5" edge="1">
          <mxGeometry relative="1" as="geometry">
            <mxPoint x="618.9999999999998" y="590" as="sourcePoint" />
            <mxPoint x="618.9999999999998" y="510" as="targetPoint" />
          </mxGeometry>
        </mxCell>
        <mxCell id="3TUTral6N7AOeNxpEsLW-6" value="COMPARATOR" style="rounded=0;whiteSpace=wrap;html=1;strokeWidth=3;fontSize=24;" parent="1" vertex="1">
          <mxGeometry x="480" y="390" width="200" height="120" as="geometry" />
        </mxCell>
        <mxCell id="3TUTral6N7AOeNxpEsLW-14" style="edgeStyle=orthogonalEdgeStyle;rounded=0;orthogonalLoop=1;jettySize=auto;html=1;exitX=0.25;exitY=0;exitDx=0;exitDy=0;entryX=0.25;entryY=1;entryDx=0;entryDy=0;fillColor=#e51400;strokeColor=#000000;strokeWidth=3;fontSize=24;" parent="1" edge="1">
          <mxGeometry relative="1" as="geometry">
            <mxPoint x="160" y="390" as="sourcePoint" />
            <mxPoint x="160" y="310" as="targetPoint" />
          </mxGeometry>
        </mxCell>
        <mxCell id="3TUTral6N7AOeNxpEsLW-9" value="COMPARATOR" style="rounded=0;whiteSpace=wrap;html=1;strokeWidth=3;fontSize=24;" parent="1" vertex="1">
          <mxGeometry x="480" y="190" width="200" height="120" as="geometry" />
        </mxCell>
        <mxCell id="3TUTral6N7AOeNxpEsLW-10" value="COMPARATOR" style="rounded=0;whiteSpace=wrap;html=1;strokeWidth=3;fontSize=24;" parent="1" vertex="1">
          <mxGeometry x="120" y="190" width="200" height="120" as="geometry" />
        </mxCell>
        <mxCell id="3TUTral6N7AOeNxpEsLW-23" style="edgeStyle=orthogonalEdgeStyle;rounded=0;orthogonalLoop=1;jettySize=auto;html=1;exitX=0.25;exitY=0;exitDx=0;exitDy=0;entryX=0.25;entryY=1;entryDx=0;entryDy=0;fillColor=#e51400;strokeColor=#B85450;strokeWidth=3;fontSize=24;" parent="1" edge="1">
          <mxGeometry relative="1" as="geometry">
            <mxPoint x="160" y="190" as="sourcePoint" />
            <mxPoint x="160" y="110" as="targetPoint" />
          </mxGeometry>
        </mxCell>
        <mxCell id="3TUTral6N7AOeNxpEsLW-24" style="edgeStyle=orthogonalEdgeStyle;rounded=0;orthogonalLoop=1;jettySize=auto;html=1;exitX=0.75;exitY=0;exitDx=0;exitDy=0;entryX=0.75;entryY=1;entryDx=0;entryDy=0;strokeWidth=3;fontSize=24;" parent="1" edge="1">
          <mxGeometry relative="1" as="geometry">
            <mxPoint x="260" y="190" as="sourcePoint" />
            <mxPoint x="260" y="110" as="targetPoint" />
          </mxGeometry>
        </mxCell>
        <mxCell id="3TUTral6N7AOeNxpEsLW-25" style="edgeStyle=orthogonalEdgeStyle;rounded=0;orthogonalLoop=1;jettySize=auto;html=1;exitX=0.25;exitY=0;exitDx=0;exitDy=0;entryX=0.25;entryY=1;entryDx=0;entryDy=0;strokeWidth=3;fontSize=24;" parent="1" edge="1">
          <mxGeometry relative="1" as="geometry">
            <mxPoint x="520" y="190" as="sourcePoint" />
            <mxPoint x="520" y="110" as="targetPoint" />
          </mxGeometry>
        </mxCell>
        <mxCell id="3TUTral6N7AOeNxpEsLW-26" style="edgeStyle=orthogonalEdgeStyle;rounded=0;orthogonalLoop=1;jettySize=auto;html=1;exitX=0.75;exitY=0;exitDx=0;exitDy=0;entryX=0.75;entryY=1;entryDx=0;entryDy=0;strokeWidth=3;fontSize=24;" parent="1" edge="1">
          <mxGeometry relative="1" as="geometry">
            <mxPoint x="620" y="190" as="sourcePoint" />
            <mxPoint x="620" y="110" as="targetPoint" />
          </mxGeometry>
        </mxCell>
        <mxCell id="3TUTral6N7AOeNxpEsLW-31" style="rounded=0;orthogonalLoop=1;jettySize=auto;html=1;exitX=0.75;exitY=0;exitDx=0;exitDy=0;entryX=0.25;entryY=1;entryDx=0;entryDy=0;startArrow=block;startFill=1;endArrow=none;endFill=0;strokeWidth=3;fontSize=24;" parent="1" edge="1">
          <mxGeometry relative="1" as="geometry">
            <mxPoint x="280" y="590" as="sourcePoint" />
            <mxPoint x="540" y="510" as="targetPoint" />
          </mxGeometry>
        </mxCell>
        <mxCell id="3TUTral6N7AOeNxpEsLW-32" style="edgeStyle=orthogonalEdgeStyle;rounded=0;orthogonalLoop=1;jettySize=auto;html=1;exitX=0.25;exitY=0;exitDx=0;exitDy=0;entryX=0.25;entryY=1;entryDx=0;entryDy=0;startArrow=block;startFill=1;endArrow=none;endFill=0;strokeWidth=3;fontSize=24;" parent="1" edge="1">
          <mxGeometry relative="1" as="geometry">
            <mxPoint x="180" y="590" as="sourcePoint" />
            <mxPoint x="180" y="510" as="targetPoint" />
          </mxGeometry>
        </mxCell>
        <mxCell id="3TUTral6N7AOeNxpEsLW-33" style="edgeStyle=orthogonalEdgeStyle;rounded=0;orthogonalLoop=1;jettySize=auto;html=1;exitX=0.25;exitY=1;exitDx=0;exitDy=0;startArrow=none;startFill=0;endArrow=block;endFill=1;strokeWidth=3;fontSize=24;" parent="1" edge="1">
          <mxGeometry relative="1" as="geometry">
            <mxPoint x="180" y="770" as="targetPoint" />
            <mxPoint x="180" y="710" as="sourcePoint" />
          </mxGeometry>
        </mxCell>
        <mxCell id="3TUTral6N7AOeNxpEsLW-34" style="edgeStyle=orthogonalEdgeStyle;rounded=0;orthogonalLoop=1;jettySize=auto;html=1;exitX=0.75;exitY=1;exitDx=0;exitDy=0;startArrow=none;startFill=0;endArrow=block;endFill=1;strokeWidth=3;fontSize=24;" parent="1" edge="1">
          <mxGeometry relative="1" as="geometry">
            <mxPoint x="280" y="770" as="targetPoint" />
            <mxPoint x="280" y="710" as="sourcePoint" />
          </mxGeometry>
        </mxCell>
        <mxCell id="3TUTral6N7AOeNxpEsLW-36" style="rounded=0;orthogonalLoop=1;jettySize=auto;html=1;exitX=0.826;exitY=0.005;exitDx=0;exitDy=0;entryX=0.892;entryY=1.005;entryDx=0;entryDy=0;startArrow=block;startFill=1;endArrow=none;endFill=0;strokeWidth=3;fontSize=24;entryPerimeter=0;exitPerimeter=0;" parent="1" source="3TUTral6N7AOeNxpEsLW-2" target="3TUTral6N7AOeNxpEsLW-5" edge="1">
          <mxGeometry relative="1" as="geometry">
            <mxPoint x="640" y="590" as="sourcePoint" />
            <mxPoint x="640" y="510" as="targetPoint" />
          </mxGeometry>
        </mxCell>
        <mxCell id="3TUTral6N7AOeNxpEsLW-37" style="edgeStyle=orthogonalEdgeStyle;rounded=0;orthogonalLoop=1;jettySize=auto;html=1;exitX=0.25;exitY=1;exitDx=0;exitDy=0;startArrow=none;startFill=0;endArrow=block;endFill=1;fillColor=#0050ef;strokeColor=#6C8EBF;strokeWidth=3;fontSize=24;" parent="1" edge="1">
          <mxGeometry relative="1" as="geometry">
            <mxPoint x="540" y="770" as="targetPoint" />
            <mxPoint x="540" y="710" as="sourcePoint" />
          </mxGeometry>
        </mxCell>
        <mxCell id="3TUTral6N7AOeNxpEsLW-38" style="edgeStyle=orthogonalEdgeStyle;rounded=0;orthogonalLoop=1;jettySize=auto;html=1;exitX=0.75;exitY=1;exitDx=0;exitDy=0;startArrow=none;startFill=0;endArrow=block;endFill=1;strokeWidth=3;fontSize=24;" parent="1" edge="1">
          <mxGeometry relative="1" as="geometry">
            <mxPoint x="640" y="770" as="targetPoint" />
            <mxPoint x="640" y="710" as="sourcePoint" />
          </mxGeometry>
        </mxCell>
        <mxCell id="3TUTral6N7AOeNxpEsLW-39" style="edgeStyle=orthogonalEdgeStyle;rounded=0;orthogonalLoop=1;jettySize=auto;html=1;exitX=0.25;exitY=0;exitDx=0;exitDy=0;entryX=0.25;entryY=1;entryDx=0;entryDy=0;startArrow=block;startFill=1;endArrow=none;endFill=0;fillColor=#0050ef;strokeColor=#000000;strokeWidth=3;fontSize=24;" parent="1" edge="1">
          <mxGeometry relative="1" as="geometry">
            <mxPoint x="180" y="390" as="sourcePoint" />
            <mxPoint x="180" y="310" as="targetPoint" />
          </mxGeometry>
        </mxCell>
        <mxCell id="3TUTral6N7AOeNxpEsLW-43" style="edgeStyle=orthogonalEdgeStyle;rounded=0;orthogonalLoop=1;jettySize=auto;html=1;exitX=0.25;exitY=0;exitDx=0;exitDy=0;entryX=0.25;entryY=1;entryDx=0;entryDy=0;startArrow=block;startFill=1;endArrow=none;endFill=0;fillColor=#0050ef;strokeColor=#6C8EBF;strokeWidth=3;fontSize=24;" parent="1" edge="1">
          <mxGeometry relative="1" as="geometry">
            <mxPoint x="180" y="190" as="sourcePoint" />
            <mxPoint x="180" y="110" as="targetPoint" />
          </mxGeometry>
        </mxCell>
        <mxCell id="3TUTral6N7AOeNxpEsLW-44" style="edgeStyle=orthogonalEdgeStyle;rounded=0;orthogonalLoop=1;jettySize=auto;html=1;exitX=0.75;exitY=0;exitDx=0;exitDy=0;entryX=0.75;entryY=1;entryDx=0;entryDy=0;startArrow=block;startFill=1;endArrow=none;endFill=0;strokeWidth=3;fontSize=24;" parent="1" edge="1">
          <mxGeometry relative="1" as="geometry">
            <mxPoint x="280" y="190" as="sourcePoint" />
            <mxPoint x="280" y="110" as="targetPoint" />
          </mxGeometry>
        </mxCell>
        <mxCell id="3TUTral6N7AOeNxpEsLW-45" style="edgeStyle=orthogonalEdgeStyle;rounded=0;orthogonalLoop=1;jettySize=auto;html=1;exitX=0.25;exitY=0;exitDx=0;exitDy=0;entryX=0.25;entryY=1;entryDx=0;entryDy=0;startArrow=block;startFill=1;endArrow=none;endFill=0;strokeWidth=3;fontSize=24;" parent="1" edge="1">
          <mxGeometry relative="1" as="geometry">
            <mxPoint x="540" y="190" as="sourcePoint" />
            <mxPoint x="540" y="110" as="targetPoint" />
          </mxGeometry>
        </mxCell>
        <mxCell id="3TUTral6N7AOeNxpEsLW-46" style="edgeStyle=orthogonalEdgeStyle;rounded=0;orthogonalLoop=1;jettySize=auto;html=1;exitX=0.75;exitY=0;exitDx=0;exitDy=0;entryX=0.75;entryY=1;entryDx=0;entryDy=0;startArrow=block;startFill=1;endArrow=none;endFill=0;strokeWidth=3;fontSize=24;" parent="1" edge="1">
          <mxGeometry relative="1" as="geometry">
            <mxPoint x="640" y="190" as="sourcePoint" />
            <mxPoint x="640" y="110" as="targetPoint" />
          </mxGeometry>
        </mxCell>
        <mxCell id="3TUTral6N7AOeNxpEsLW-54" value="X&lt;sub style=&quot;font-size: 26px;&quot;&gt;3&lt;/sub&gt;&lt;br style=&quot;font-size: 26px;&quot;&gt;T=30" style="text;html=1;align=center;verticalAlign=middle;whiteSpace=wrap;rounded=0;fontSize=26;strokeWidth=3;" parent="1" vertex="1">
          <mxGeometry x="90" y="730" width="60" height="30" as="geometry" />
        </mxCell>
        <mxCell id="3TUTral6N7AOeNxpEsLW-55" value="&lt;div style=&quot;font-size: 26px;&quot;&gt;sel&lt;sub&gt;3&lt;/sub&gt;&lt;/div&gt;" style="text;html=1;align=center;verticalAlign=middle;whiteSpace=wrap;rounded=0;fontSize=26;strokeWidth=3;" parent="1" vertex="1">
          <mxGeometry x="150" y="780" width="60" height="30" as="geometry" />
        </mxCell>
        <mxCell id="3TUTral6N7AOeNxpEsLW-56" value="X&lt;sub style=&quot;font-size: 26px;&quot;&gt;2&lt;/sub&gt;&lt;br style=&quot;font-size: 26px;&quot;&gt;T=40" style="text;html=1;align=center;verticalAlign=middle;whiteSpace=wrap;rounded=0;fontSize=26;strokeWidth=3;" parent="1" vertex="1">
          <mxGeometry x="190" y="730" width="60" height="30" as="geometry" />
        </mxCell>
        <mxCell id="3TUTral6N7AOeNxpEsLW-57" value="&lt;div style=&quot;font-size: 26px;&quot;&gt;sel&lt;sub&gt;2&lt;/sub&gt;&lt;/div&gt;" style="text;html=1;align=center;verticalAlign=middle;whiteSpace=wrap;rounded=0;fontSize=26;strokeWidth=3;" parent="1" vertex="1">
          <mxGeometry x="250" y="780" width="60" height="30" as="geometry" />
        </mxCell>
        <mxCell id="3TUTral6N7AOeNxpEsLW-58" value="X&lt;sub style=&quot;font-size: 26px;&quot;&gt;1&lt;/sub&gt;&lt;br style=&quot;font-size: 26px;&quot;&gt;T=50" style="text;html=1;align=center;verticalAlign=middle;whiteSpace=wrap;rounded=0;fontSize=26;strokeWidth=3;" parent="1" vertex="1">
          <mxGeometry x="450" y="730" width="60" height="30" as="geometry" />
        </mxCell>
        <mxCell id="3TUTral6N7AOeNxpEsLW-59" value="&lt;div style=&quot;font-size: 26px;&quot;&gt;sel&lt;sub&gt;1&lt;/sub&gt;&lt;/div&gt;" style="text;html=1;align=center;verticalAlign=middle;whiteSpace=wrap;rounded=0;fontSize=26;strokeWidth=3;" parent="1" vertex="1">
          <mxGeometry x="510" y="780" width="60" height="30" as="geometry" />
        </mxCell>
        <mxCell id="3TUTral6N7AOeNxpEsLW-60" value="X&lt;sub style=&quot;font-size: 26px;&quot;&gt;0&lt;/sub&gt;&lt;br style=&quot;font-size: 26px;&quot;&gt;T=20" style="text;html=1;align=center;verticalAlign=middle;whiteSpace=wrap;rounded=0;fontSize=26;strokeWidth=3;" parent="1" vertex="1">
          <mxGeometry x="550" y="730" width="60" height="30" as="geometry" />
        </mxCell>
        <mxCell id="3TUTral6N7AOeNxpEsLW-61" value="&lt;div style=&quot;font-size: 26px;&quot;&gt;sel&lt;sub&gt;0&lt;/sub&gt;&lt;/div&gt;" style="text;html=1;align=center;verticalAlign=middle;whiteSpace=wrap;rounded=0;fontSize=26;strokeWidth=3;" parent="1" vertex="1">
          <mxGeometry x="610" y="780" width="60" height="30" as="geometry" />
        </mxCell>
        <mxCell id="3TUTral6N7AOeNxpEsLW-68" value="&lt;font style=&quot;font-size: 28px;&quot;&gt;&lt;span style=&quot;font-size: 28px;&quot;&gt;top&lt;/span&gt;&lt;sub&gt;1&lt;br style=&quot;font-size: 28px;&quot;&gt;&lt;/sub&gt;&lt;/font&gt;" style="text;html=1;align=center;verticalAlign=middle;whiteSpace=wrap;rounded=0;fontSize=28;strokeWidth=3;" parent="1" vertex="1">
          <mxGeometry x="260" y="80" width="60" height="30" as="geometry" />
        </mxCell>
        <mxCell id="3TUTral6N7AOeNxpEsLW-75" value="&lt;div style=&quot;font-size: 25px;&quot;&gt;&lt;font style=&quot;font-size: 28px;&quot;&gt;O&lt;sub&gt;0&lt;/sub&gt;&lt;/font&gt;&lt;/div&gt;" style="text;html=1;align=center;verticalAlign=middle;whiteSpace=wrap;rounded=0;fontSize=24;strokeWidth=3;" parent="1" vertex="1">
          <mxGeometry x="100" y="130" width="60" height="30" as="geometry" />
        </mxCell>
        <mxCell id="3TUTral6N7AOeNxpEsLW-76" value="&lt;div style=&quot;font-size: 28px;&quot;&gt;O&lt;sub&gt;1&lt;/sub&gt;&lt;/div&gt;" style="text;html=1;align=center;verticalAlign=middle;whiteSpace=wrap;rounded=0;fontSize=28;strokeWidth=3;" parent="1" vertex="1">
          <mxGeometry x="210" y="130" width="60" height="30" as="geometry" />
        </mxCell>
        <mxCell id="3TUTral6N7AOeNxpEsLW-79" value="O&lt;sub&gt;2&lt;/sub&gt;" style="text;html=1;align=center;verticalAlign=middle;whiteSpace=wrap;rounded=0;fontSize=28;strokeWidth=3;" parent="1" vertex="1">
          <mxGeometry x="470" y="130" width="60" height="30" as="geometry" />
        </mxCell>
        <mxCell id="3TUTral6N7AOeNxpEsLW-80" value="&lt;div style=&quot;font-size: 28px;&quot;&gt;O&lt;sub&gt;3&lt;/sub&gt;&lt;/div&gt;" style="text;html=1;align=center;verticalAlign=middle;whiteSpace=wrap;rounded=0;fontSize=28;strokeWidth=3;" parent="1" vertex="1">
          <mxGeometry x="565" y="130" width="60" height="30" as="geometry" />
        </mxCell>
        <mxCell id="3TUTral6N7AOeNxpEsLW-16" style="rounded=0;orthogonalLoop=1;jettySize=auto;html=1;strokeWidth=3;fontSize=24;exitX=0.692;exitY=-0.015;exitDx=0;exitDy=0;exitPerimeter=0;entryX=0.668;entryY=1;entryDx=0;entryDy=0;entryPerimeter=0;" parent="1" source="3TUTral6N7AOeNxpEsLW-5" target="3TUTral6N7AOeNxpEsLW-9" edge="1">
          <mxGeometry relative="1" as="geometry">
            <mxPoint x="459" y="390" as="sourcePoint" />
            <mxPoint x="530" y="340" as="targetPoint" />
          </mxGeometry>
        </mxCell>
        <mxCell id="3TUTral6N7AOeNxpEsLW-41" style="rounded=0;orthogonalLoop=1;jettySize=auto;html=1;exitX=0.802;exitY=-0.008;exitDx=0;exitDy=0;startArrow=block;startFill=1;endArrow=none;endFill=0;strokeWidth=3;fontSize=24;exitPerimeter=0;entryX=0.809;entryY=0.996;entryDx=0;entryDy=0;entryPerimeter=0;" parent="1" source="3TUTral6N7AOeNxpEsLW-5" target="3TUTral6N7AOeNxpEsLW-9" edge="1">
          <mxGeometry relative="1" as="geometry">
            <mxPoint x="540" y="390" as="sourcePoint" />
            <mxPoint x="640" y="320" as="targetPoint" />
          </mxGeometry>
        </mxCell>
        <mxCell id="3TUTral6N7AOeNxpEsLW-17" style="rounded=0;orthogonalLoop=1;jettySize=auto;html=1;exitX=0.75;exitY=0;exitDx=0;exitDy=0;entryX=0.197;entryY=0.992;entryDx=0;entryDy=0;strokeWidth=3;fontSize=24;entryPerimeter=0;" parent="1" target="3TUTral6N7AOeNxpEsLW-9" edge="1">
          <mxGeometry relative="1" as="geometry">
            <mxPoint x="619.9999999999998" y="390" as="sourcePoint" />
            <mxPoint x="619.9999999999998" y="310" as="targetPoint" />
          </mxGeometry>
        </mxCell>
        <mxCell id="3TUTral6N7AOeNxpEsLW-42" style="rounded=0;orthogonalLoop=1;jettySize=auto;html=1;exitX=0.75;exitY=0;exitDx=0;exitDy=0;entryX=0.295;entryY=1;entryDx=0;entryDy=0;startArrow=block;startFill=1;endArrow=none;endFill=0;strokeWidth=3;fontSize=24;entryPerimeter=0;" parent="1" target="3TUTral6N7AOeNxpEsLW-9" edge="1">
          <mxGeometry relative="1" as="geometry">
            <mxPoint x="640" y="390" as="sourcePoint" />
            <mxPoint x="640" y="310" as="targetPoint" />
          </mxGeometry>
        </mxCell>
        <mxCell id="3TUTral6N7AOeNxpEsLW-15" style="rounded=0;orthogonalLoop=1;jettySize=auto;html=1;exitX=0.195;exitY=0.011;exitDx=0;exitDy=0;entryX=0.75;entryY=1;entryDx=0;entryDy=0;strokeWidth=3;fontSize=24;exitPerimeter=0;strokeColor=#B85450;" parent="1" source="3TUTral6N7AOeNxpEsLW-6" edge="1">
          <mxGeometry relative="1" as="geometry">
            <mxPoint x="260" y="390" as="sourcePoint" />
            <mxPoint x="260" y="310" as="targetPoint" />
          </mxGeometry>
        </mxCell>
        <mxCell id="3TUTral6N7AOeNxpEsLW-40" style="rounded=0;orthogonalLoop=1;jettySize=auto;html=1;exitX=0.298;exitY=0.017;exitDx=0;exitDy=0;entryX=0.75;entryY=1;entryDx=0;entryDy=0;startArrow=block;startFill=1;endArrow=none;endFill=0;strokeWidth=3;fontSize=24;exitPerimeter=0;strokeColor=#6C8EBF;" parent="1" source="3TUTral6N7AOeNxpEsLW-6" edge="1">
          <mxGeometry relative="1" as="geometry">
            <mxPoint x="280" y="390" as="sourcePoint" />
            <mxPoint x="280" y="310" as="targetPoint" />
          </mxGeometry>
        </mxCell>
        <mxCell id="3TUTral6N7AOeNxpEsLW-12" style="rounded=0;orthogonalLoop=1;jettySize=auto;html=1;exitX=0.25;exitY=0;exitDx=0;exitDy=0;fillColor=#e51400;strokeColor=#B85450;strokeWidth=3;fontSize=24;entryX=0.692;entryY=1.017;entryDx=0;entryDy=0;entryPerimeter=0;" parent="1" target="3TUTral6N7AOeNxpEsLW-6" edge="1">
          <mxGeometry relative="1" as="geometry">
            <mxPoint x="519.9999999999998" y="590" as="sourcePoint" />
            <mxPoint x="370" y="500" as="targetPoint" />
          </mxGeometry>
        </mxCell>
        <mxCell id="3TUTral6N7AOeNxpEsLW-35" style="rounded=0;orthogonalLoop=1;jettySize=auto;html=1;exitX=0.25;exitY=0;exitDx=0;exitDy=0;startArrow=block;startFill=1;endArrow=none;endFill=0;fillColor=#0050ef;strokeColor=#6C8EBF;strokeWidth=3;fontSize=24;entryX=0.798;entryY=1.023;entryDx=0;entryDy=0;entryPerimeter=0;" parent="1" target="3TUTral6N7AOeNxpEsLW-6" edge="1">
          <mxGeometry relative="1" as="geometry">
            <mxPoint x="540" y="590" as="sourcePoint" />
            <mxPoint x="380" y="480" as="targetPoint" />
          </mxGeometry>
        </mxCell>
        <mxCell id="8DuKI1ojs1K7jVrmT93r-1" value="&lt;font style=&quot;font-size: 28px;&quot;&gt;&lt;span style=&quot;font-size: 28px;&quot;&gt;top&lt;/span&gt;&lt;sub&gt;0&lt;br style=&quot;font-size: 28px;&quot;&gt;&lt;/sub&gt;&lt;/font&gt;" style="text;html=1;align=center;verticalAlign=middle;whiteSpace=wrap;rounded=0;fontSize=28;strokeWidth=3;" vertex="1" parent="1">
          <mxGeometry x="160" y="80" width="60" height="30" as="geometry" />
        </mxCell>
        <mxCell id="8DuKI1ojs1K7jVrmT93r-2" value="&lt;font style=&quot;font-size: 28px;&quot;&gt;&lt;span style=&quot;font-size: 28px;&quot;&gt;top&lt;/span&gt;&lt;sub&gt;3&lt;br style=&quot;font-size: 28px;&quot;&gt;&lt;/sub&gt;&lt;/font&gt;" style="text;html=1;align=center;verticalAlign=middle;whiteSpace=wrap;rounded=0;fontSize=28;strokeWidth=3;" vertex="1" parent="1">
          <mxGeometry x="620" y="80" width="60" height="30" as="geometry" />
        </mxCell>
        <mxCell id="8DuKI1ojs1K7jVrmT93r-3" value="&lt;font style=&quot;font-size: 28px;&quot;&gt;&lt;span style=&quot;font-size: 28px;&quot;&gt;top&lt;/span&gt;&lt;sub&gt;2&lt;br style=&quot;font-size: 28px;&quot;&gt;&lt;/sub&gt;&lt;/font&gt;" style="text;html=1;align=center;verticalAlign=middle;whiteSpace=wrap;rounded=0;fontSize=28;strokeWidth=3;" vertex="1" parent="1">
          <mxGeometry x="520" y="80" width="60" height="30" as="geometry" />
        </mxCell>
      </root>
    </mxGraphModel>
  </diagram>
</mxfile>
